REM DIRINDEX 1\2,1\3
REM DIRNAME cjc133,folder01,folder02
TITLE ""
FILE "DISC1Track37.mp3" MP3
  TRACK 01 AUDIO
    TITLE "0:"
    INDEX 01 00:00:00
  TRACK 02 AUDIO
    TITLE "3:cjc133_1658"
    INDEX 01 00:00:17
  TRACK 03 AUDIO
    TITLE "0:"
    INDEX 01 00:01:58
  TRACK 04 AUDIO
    TITLE "2:cjc133_1659"
    INDEX 01 00:02:36
  TRACK 05 AUDIO
    TITLE "2:cjc133_1660"
    INDEX 01 00:05:34
  TRACK 06 AUDIO
    TITLE "2:cjc133_1661"
    INDEX 01 00:08:32
  TRACK 07 AUDIO
    TITLE "0:"
    INDEX 01 00:10:41
  TRACK 08 AUDIO
    TITLE "2:cjc133_1662"
    INDEX 01 00:11:13
  TRACK 09 AUDIO
    TITLE "2:cjc133_1663"
    INDEX 01 00:12:61
  TRACK 10 AUDIO
    TITLE "2:cjc133_1664"
    INDEX 01 00:15:52
  TRACK 11 AUDIO
    TITLE "0:"
    INDEX 01 00:17:59
  TRACK 12 AUDIO
    TITLE "2:cjc133_1665"
    INDEX 01 00:18:27
  TRACK 13 AUDIO
    TITLE "2:cjc133_1666"
    INDEX 01 00:19:71
  TRACK 14 AUDIO
    TITLE "2:cjc133_1667"
    INDEX 01 00:23:22
  TRACK 15 AUDIO
    TITLE "0:"
    INDEX 01 00:25:54
  TRACK 16 AUDIO
    TITLE "2:cjc133_1668"
    INDEX 01 00:26:24
  TRACK 17 AUDIO
    TITLE "2:cjc133_1669"
    INDEX 01 00:29:38
  TRACK 18 AUDIO
    TITLE "2:cjc133_1670"
    INDEX 01 00:32:60
  TRACK 19 AUDIO
    TITLE "0:"
    INDEX 01 00:35:47
  TRACK 20 AUDIO
    TITLE "2:cjc133_1671"
    INDEX 01 00:36:01
  TRACK 21 AUDIO
    TITLE "2:cjc133_1672"
    INDEX 01 00:38:59
  TRACK 22 AUDIO
    TITLE "2:cjc133_1673"
    INDEX 01 00:43:03
  TRACK 23 AUDIO
    TITLE "0:"
    INDEX 01 00:46:31
  TRACK 24 AUDIO
    TITLE "2:cjc133_1674"
    INDEX 01 00:47:11
  TRACK 25 AUDIO
    TITLE "2:cjc133_1675"
    INDEX 01 00:49:14
  TRACK 26 AUDIO
    TITLE "2:cjc133_1676"
    INDEX 01 00:52:49
  TRACK 27 AUDIO
    TITLE "0:"
    INDEX 01 00:55:28
  TRACK 28 AUDIO
    TITLE "2:cjc133_1677"
    INDEX 01 00:56:02
  TRACK 29 AUDIO
    TITLE "2:cjc133_1678"
    INDEX 01 00:58:13
  TRACK 30 AUDIO
    TITLE "2:cjc133_1679"
    INDEX 01 01:01:29
  TRACK 31 AUDIO
    TITLE "0:"
    INDEX 01 01:03:55
  TRACK 32 AUDIO
    TITLE "2:cjc133_1680"
    INDEX 01 01:04:31
  TRACK 33 AUDIO
    TITLE "2:cjc133_1681"
    INDEX 01 01:07:02
  TRACK 34 AUDIO
    TITLE "2:cjc133_1682"
    INDEX 01 01:09:57
  TRACK 35 AUDIO
    TITLE "0:"
    INDEX 01 01:11:54
  TRACK 36 AUDIO
    TITLE "2:cjc133_1683"
    INDEX 01 01:12:28
  TRACK 37 AUDIO
    TITLE "2:cjc133_1684"
    INDEX 01 01:14:37
  TRACK 38 AUDIO
    TITLE "2:cjc133_1685"
    INDEX 01 01:17:51
  TRACK 39 AUDIO
    TITLE "0:"
    INDEX 01 01:19:70
  TRACK 40 AUDIO
    TITLE "2:cjc133_1686"
    INDEX 01 01:20:40
  TRACK 41 AUDIO
    TITLE "2:cjc133_1687"
    INDEX 01 01:22:37
  TRACK 42 AUDIO
    TITLE "2:cjc133_1688"
    INDEX 01 01:26:11
  TRACK 43 AUDIO
    TITLE "0:"
    INDEX 01 01:28:59
  TRACK 44 AUDIO
    TITLE "2:cjc133_1689"
    INDEX 01 01:29:33
  TRACK 45 AUDIO
    TITLE "2:cjc133_1690"
    INDEX 01 01:30:38
  TRACK 46 AUDIO
    TITLE "2:cjc133_1691"
    INDEX 01 01:34:05
  TRACK 47 AUDIO
    TITLE "0:"
    INDEX 01 01:36:50
  TRACK 48 AUDIO
    TITLE "2:cjc133_1692"
    INDEX 01 01:37:24
  TRACK 49 AUDIO
    TITLE "2:cjc133_1693"
    INDEX 01 01:39:74
  TRACK 50 AUDIO
    TITLE "2:cjc133_1694"
    INDEX 01 01:43:52
  TRACK 51 AUDIO
    TITLE "0:"
    INDEX 01 01:46:37
  TRACK 52 AUDIO
    TITLE "2:cjc133_1695"
    INDEX 01 01:47:15
  TRACK 53 AUDIO
    TITLE "2:cjc133_1696"
    INDEX 01 01:48:71
  TRACK 54 AUDIO
    TITLE "2:cjc133_1697"
    INDEX 01 01:52:40
  TRACK 55 AUDIO
    TITLE "0:"
    INDEX 01 01:55:07
  TRACK 56 AUDIO
    TITLE "2:cjc133_1698"
    INDEX 01 01:55:62
  TRACK 57 AUDIO
    TITLE "2:cjc133_1699"
    INDEX 01 01:57:37
  TRACK 58 AUDIO
    TITLE "2:cjc133_1700"
    INDEX 01 02:00:57
  TRACK 59 AUDIO
    TITLE "0:"
    INDEX 01 02:03:14
  TRACK 60 AUDIO
    TITLE "2:cjc133_1701"
    INDEX 01 02:03:67
  TRACK 61 AUDIO
    TITLE "2:cjc133_1702"
    INDEX 01 02:05:56
  TRACK 62 AUDIO
    TITLE "2:cjc133_1703"
    INDEX 01 02:09:40
  TRACK 63 AUDIO
    TITLE "0:"
    INDEX 01 02:12:38
  TRACK 64 AUDIO
    TITLE "3:cjc133_1704"
    INDEX 01 02:14:61
  TRACK 65 AUDIO
    TITLE "0:"
    INDEX 01 02:17:08
